HIERARCHY
ROOT Root
{
  OFFSET 0.0 0.0 0.0
  CHANNELS 6 Xposition Yposition Zposition Zrotation Yrotation Xrotation
  JOINT Hips
  {
    OFFSET 0.0 100.0 0.0
    CHANNELS 6 Xposition Yposition Zposition Zrotation Yrotation Xrotation
    JOINT Spine1
    {
      OFFSET 5.003913 -0.037094 -0.013727
      CHANNELS 3 Zrotation Yrotation Xrotation
      JOINT Spine2
      {
        OFFSET 7.125363 -1e-06 0.0
        CHANNELS 3 Zrotation Yrotation Xrotation
        JOINT Chest
        {
          OFFSET 7.594027 1e-06 0.0
          CHANNELS 3 Zrotation Yrotation Xrotation
          JOINT Neck1
          {
            OFFSET 26.313086 -0.460272 -0.181672
            CHANNELS 3 Zrotation Yrotation Xrotation
            JOINT Neck2
            {
              OFFSET 8.045911 0.0 0.0
              CHANNELS 3 Zrotation Yrotation Xrotation
              JOINT Head
              {
                OFFSET 6.432774 0.0 0.0
                CHANNELS 3 Zrotation Yrotation Xrotation
                JOINT HeadEnd
                {
                  OFFSET 16.169773 0.06451 0.00362
                  CHANNELS 3 Zrotation Yrotation Xrotation
                }
                JOINT Jaw
                {
                  OFFSET 0.108741 3.12938 0.002639
                  CHANNELS 3 Zrotation Yrotation Xrotation
                }
                JOINT LeftEye
                {
                  OFFSET 4.45173 8.166359 3.206392
                  CHANNELS 3 Zrotation Yrotation Xrotation
                }
                JOINT RightEye
                {
                  OFFSET 4.436895 8.135758 -3.222429
                  CHANNELS 3 Zrotation Yrotation Xrotation
                }
              }
            }
          }
          JOINT LeftShoulder
          {
            OFFSET 23.218927 5.195579 1.621656
            CHANNELS 3 Zrotation Yrotation Xrotation
            JOINT LeftArm
            {
              OFFSET 15.902118 2e-06 -2e-06
              CHANNELS 3 Zrotation Yrotation Xrotation
              JOINT LeftForeArm
              {
                OFFSET 28.739307 0.0 -1e-06
                CHANNELS 3 Zrotation Yrotation Xrotation
                JOINT LeftHand
                {
                  OFFSET 27.093981 -4e-06 0.0
                  CHANNELS 3 Zrotation Yrotation Xrotation
                  JOINT LeftHandThumb1
                  {
                    OFFSET 2.276781 3.380274 0.83384
                    CHANNELS 3 Zrotation Yrotation Xrotation
                    JOINT LeftHandThumb2
                    {
                      OFFSET 4.705309 -1e-06 -1e-06
                      CHANNELS 3 Zrotation Yrotation Xrotation
                      JOINT LeftHandThumb3
                      {
                        OFFSET 2.798515 0.0 3e-06
                        CHANNELS 3 Zrotation Yrotation Xrotation
                        JOINT LeftHandThumbEnd
                        {
                          OFFSET 3.180793 4e-06 -4e-06
                          CHANNELS 3 Zrotation Yrotation Xrotation
                        }
                      }
                    }
                  }
                  JOINT LeftHandIndex1
                  {
                    OFFSET 3.247786 2.352677 0.137192
                    CHANNELS 3 Zrotation Yrotation Xrotation
                    JOINT LeftHandIndex2
                    {
                      OFFSET 6.367095 1e-06 0.0
                      CHANNELS 3 Zrotation Yrotation Xrotation
                      JOINT LeftHandIndex3
                      {
                        OFFSET 3.662364 0.0 0.0
                        CHANNELS 3 Zrotation Yrotation Xrotation
                        JOINT LeftHandIndex4
                        {
                          OFFSET 2.329242 4e-06 -4e-06
                          CHANNELS 3 Zrotation Yrotation Xrotation
                          JOINT LeftHandIndexEnd
                          {
                            OFFSET 2.767823 1e-06 0.0
                            CHANNELS 3 Zrotation Yrotation Xrotation
                          }
                        }
                      }
                    }
                  }
                  JOINT LeftHandMiddle1
                  {
                    OFFSET 3.163612 0.945023 -0.406112
                    CHANNELS 3 Zrotation Yrotation Xrotation
                    JOINT LeftHandMiddle2
                    {
                      OFFSET 6.276789 3e-06 0.0
                      CHANNELS 3 Zrotation Yrotation Xrotation
                      JOINT LeftHandMiddle3
                      {
                        OFFSET 4.35652 -1e-06 4e-06
                        CHANNELS 3 Zrotation Yrotation Xrotation
                        JOINT LeftHandMiddle4
                        {
                          OFFSET 2.996877 0.0 8e-06
                          CHANNELS 3 Zrotation Yrotation Xrotation
                          JOINT LeftHandMiddleEnd
                          {
                            OFFSET 2.323256 3e-06 -4e-06
                            CHANNELS 3 Zrotation Yrotation Xrotation
                          }
                        }
                      }
                    }
                  }
                  JOINT LeftHandRing1
                  {
                    OFFSET 2.882606 -0.309162 0.107445
                    CHANNELS 3 Zrotation Yrotation Xrotation
                    JOINT LeftHandRing2
                    {
                      OFFSET 6.033198 0.0 4e-06
                      CHANNELS 3 Zrotation Yrotation Xrotation
                      JOINT LeftHandRing3
                      {
                        OFFSET 4.350578 3e-06 0.0
                        CHANNELS 3 Zrotation Yrotation Xrotation
                        JOINT LeftHandRing4
                        {
                          OFFSET 2.651321 2e-06 -7e-06
                          CHANNELS 3 Zrotation Yrotation Xrotation
                          JOINT LeftHandRingEnd
                          {
                            OFFSET 1.937663 1e-06 -4e-06
                            CHANNELS 3 Zrotation Yrotation Xrotation
                          }
                        }
                      }
                    }
                  }
                  JOINT LeftHandPinky1
                  {
                    OFFSET 2.865315 -1.525436 0.575687
                    CHANNELS 3 Zrotation Yrotation Xrotation
                    JOINT LeftHandPinky2
                    {
                      OFFSET 5.54936 1e-06 -8e-06
                      CHANNELS 3 Zrotation Yrotation Xrotation
                      JOINT LeftHandPinky3
                      {
                        OFFSET 3.070974 0.0 -4e-06
                        CHANNELS 3 Zrotation Yrotation Xrotation
                        JOINT LeftHandPinky4
                        {
                          OFFSET 1.549672 1e-06 0.0
                          CHANNELS 3 Zrotation Yrotation Xrotation
                          JOINT LeftHandPinkyEnd
                          {
                            OFFSET 1.952123 0.0 0.0
                            CHANNELS 3 Zrotation Yrotation Xrotation
                          }
                        }
                      }
                    }
                  }
                }
              }
            }
          }
          JOINT RightShoulder
          {
            OFFSET 23.161716 5.296122 -1.380114
            CHANNELS 3 Zrotation Yrotation Xrotation
            JOINT RightArm
            {
              OFFSET -16.027195 -2e-06 1.1e-05
              CHANNELS 3 Zrotation Yrotation Xrotation
              JOINT RightForeArm
              {
                OFFSET -28.736639 4e-06 2e-06
                CHANNELS 3 Zrotation Yrotation Xrotation
                JOINT RightHand
                {
                  OFFSET -27.133619 6e-06 0.0
                  CHANNELS 3 Zrotation Yrotation Xrotation
                  JOINT RightHandThumb1
                  {
                    OFFSET -2.274328 -3.351035 -0.83067
                    CHANNELS 3 Zrotation Yrotation Xrotation
                    JOINT RightHandThumb2
                    {
                      OFFSET -4.703594 -3e-06 2e-06
                      CHANNELS 3 Zrotation Yrotation Xrotation
                      JOINT RightHandThumb3
                      {
                        OFFSET -2.794935 -4e-06 -3e-06
                        CHANNELS 3 Zrotation Yrotation Xrotation
                        JOINT RightHandThumbEnd
                        {
                          OFFSET -3.183852 4e-06 1e-06
                          CHANNELS 3 Zrotation Yrotation Xrotation
                        }
                      }
                    }
                  }
                  JOINT RightHandIndex1
                  {
                    OFFSET -3.253496 -2.33755 -0.127667
                    CHANNELS 3 Zrotation Yrotation Xrotation
                    JOINT RightHandIndex2
                    {
                      OFFSET -6.344434 0.0 0.0
                      CHANNELS 3 Zrotation Yrotation Xrotation
                      JOINT RightHandIndex3
                      {
                        OFFSET -3.654871 0.0 -8e-06
                        CHANNELS 3 Zrotation Yrotation Xrotation
                        JOINT RightHandIndex4
                        {
                          OFFSET -2.327586 -1e-06 0.0
                          CHANNELS 3 Zrotation Yrotation Xrotation
                          JOINT RightHandIndexEnd
                          {
                            OFFSET -2.770001 3e-06 8e-06
                            CHANNELS 3 Zrotation Yrotation Xrotation
                          }
                        }
                      }
                    }
                  }
                  JOINT RightHandMiddle1
                  {
                    OFFSET -3.168223 -0.944764 0.411762
                    CHANNELS 3 Zrotation Yrotation Xrotation
                    JOINT RightHandMiddle2
                    {
                      OFFSET -6.266691 -1e-06 -4e-06
                      CHANNELS 3 Zrotation Yrotation Xrotation
                      JOINT RightHandMiddle3
                      {
                        OFFSET -4.348901 0.0 0.0
                        CHANNELS 3 Zrotation Yrotation Xrotation
                        JOINT RightHandMiddle4
                        {
                          OFFSET -3.00024 2e-06 -4e-06
                          CHANNELS 3 Zrotation Yrotation Xrotation
                          JOINT RightHandMiddleEnd
                          {
                            OFFSET -2.321477 -4e-06 -4e-06
                            CHANNELS 3 Zrotation Yrotation Xrotation
                          }
                        }
                      }
                    }
                  }
                  JOINT RightHandRing1
                  {
                    OFFSET -2.885654 0.293261 -0.119232
                    CHANNELS 3 Zrotation Yrotation Xrotation
                    JOINT RightHandRing2
                    {
                      OFFSET -6.032835 -1e-06 -4e-06
                      CHANNELS 3 Zrotation Yrotation Xrotation
                      JOINT RightHandRing3
                      {
                        OFFSET -4.33881 0.0 -4e-06
                        CHANNELS 3 Zrotation Yrotation Xrotation
                        JOINT RightHandRing4
                        {
                          OFFSET -2.654903 -4e-06 -4e-06
                          CHANNELS 3 Zrotation Yrotation Xrotation
                          JOINT RightHandRingEnd
                          {
                            OFFSET -1.935122 0.0 4e-06
                            CHANNELS 3 Zrotation Yrotation Xrotation
                          }
                        }
                      }
                    }
                  }
                  JOINT RightHandPinky1
                  {
                    OFFSET -2.866241 1.503904 -0.60527
                    CHANNELS 3 Zrotation Yrotation Xrotation
                    JOINT RightHandPinky2
                    {
                      OFFSET -5.553177 -2e-06 0.0
                      CHANNELS 3 Zrotation Yrotation Xrotation
                      JOINT RightHandPinky3
                      {
                        OFFSET -3.062664 -1e-06 -4e-06
                        CHANNELS 3 Zrotation Yrotation Xrotation
                        JOINT RightHandPinky4
                        {
                          OFFSET -1.546529 2e-06 4e-06
                          CHANNELS 3 Zrotation Yrotation Xrotation
                          JOINT RightHandPinkyEnd
                          {
                            OFFSET -1.952341 0.0 -4e-06
                            CHANNELS 3 Zrotation Yrotation Xrotation
                          }
                        }
                      }
                    }
                  }
                }
              }
            }
          }
        }
      }
    }
    JOINT LeftLeg
    {
      OFFSET -8.443107 2.567604 10.043214
      CHANNELS 3 Zrotation Yrotation Xrotation
      JOINT LeftShin
      {
        OFFSET 43.229198 1e-06 -1e-06
        CHANNELS 3 Zrotation Yrotation Xrotation
        JOINT LeftFoot
        {
          OFFSET 42.298611 1e-06 1e-06
          CHANNELS 3 Zrotation Yrotation Xrotation
          JOINT LeftToeBase
          {
            OFFSET 14.165858 1e-06 0.0
            CHANNELS 3 Zrotation Yrotation Xrotation
            JOINT LeftToeEnd
            {
              OFFSET 6.7141 -0.234461 0.0
              CHANNELS 3 Zrotation Yrotation Xrotation
            }
          }
        }
      }
    }
    JOINT RightLeg
    {
      OFFSET -8.303923 2.592729 -10.047278
      CHANNELS 3 Zrotation Yrotation Xrotation
      JOINT RightShin
      {
        OFFSET -43.369682 0.0 1e-06
        CHANNELS 3 Zrotation Yrotation Xrotation
        JOINT RightFoot
        {
          OFFSET -42.260784 4e-06 2e-06
          CHANNELS 3 Zrotation Yrotation Xrotation
          JOINT RightToeBase
          {
            OFFSET -14.222245 -2e-06 -1e-06
            CHANNELS 3 Zrotation Yrotation Xrotation
            JOINT RightToeEnd
            {
              OFFSET -6.660062 0.232574 -2e-06
              CHANNELS 3 Zrotation Yrotation Xrotation
            }
          }
        }
      }
    }
  }
}
MOTION
Frames: 4
Frame Time: 0.03333333333333333
0.0 0.0 0.0 0.0 -0.0 0.0 -0.8669 49.518898 -4.487658 84.353699 -60.051926 91.109863 13.022397 -0.679938 -0.488317 -4.451075 -0.840718 -1.159142 20.284988 2.298998 -2.129236 7.124812 -0.946546 3.05183 -2.589053 0.343454 7.938732 -37.589512 5.9936 6.441982 4e-06 -0.0 0.0 -0.078227 0.362642 -0.139688 0.098251 0.3143 -0.0498 0.152611 0.417483 -0.230526 -23.611641 -71.269722 29.951509 50.812595 -1.847207 -45.377075 42.2896 -0.364424 1.51348 28.629581 54.330147 30.957642 17.636633 -26.322737 52.411201 -19.466665 -14.395598 29.410395 -1e-06 -8.774822 -2e-06 16.008394 -18.197222 6.85551 -0.609776 -1.795654 -3.889328 -4.80709 -11.046814 -2.93785 4e-06 -20.976021 0.0 -5.019972 -25.033562 -4.031881 6e-06 1e-06 -0.0 -10.634535 -5.686972 -3.565588 10.573277 -17.922953 -3.1139 3e-06 -13.821213 1e-06 -0.501777 -31.181511 -4.027016 -10.669852 -60.028725 6.979422 -13.982716 -7.150198 -2.875041 13.772731 -8.401495 -3.218242 0.347734 -34.211555 0.771655 -0.963029 -17.733372 2.621021 -1e-06 -0.0 0.0 -17.346422 -20.095221 -4.201782 21.757561 -1.638375 3.866428 1e-06 -6.338825 1e-06 -1.69759 -22.591751 -6.194007 0.0 -5e-06 -2e-06 162.194992 -77.362617 21.707438 100.894028 -3.204797 -24.720856 9.729984 0.117329 0.16432 53.662548 72.841782 59.956173 22.182121 -20.375895 49.933323 -16.701813 -16.74353 28.47653 -1e-06 -12.690603 -2e-06 15.862078 -17.950394 3.23692 -0.10592 -1.513856 -4.275881 -5.039042 -5.612874 -2.953557 3e-06 -11.020527 -2e-06 -6.1113 -15.895336 -3.840471 -0.0 -2e-06 -0.0 -10.283372 -5.680291 -4.341839 11.028296 -11.302406 -2.372633 -1.384269 -14.238581 -6.320122 -0.625439 -26.924192 -3.827602 -4.056555 -49.382229 -4.127182 -13.708526 -7.363478 -3.72094 18.141148 -14.052739 -3.242673 4e-06 -18.787273 -2e-06 -0.429711 -8.456041 2.555504 0.0 0.0 -0.0 -15.923538 -20.094492 -5.473585 30.419218 -7.190825 1.735929 3e-06 -8.162927 -0.0 -1.861902 -22.861469 -6.167944 0.0 -2e-06 -1e-06 122.101151 -8.228951 3.134033 103.061317 -0.185927 0.580881 -58.845299 34.397518 0.140016 -14.508446 1.163416 1.4615 -0.999997 0.0 -0.0 -49.620941 -8.007378 1.142744 107.177757 -3.289782 0.188448 -59.531799 9.436308 -1.324151 -8.959023 0.525482 1.847597 -1.000006 0.0 0.0 
0.0 0.0 0.0 0.0 -0.0 0.0 -0.198156 49.646461 -2.956978 83.442688 -60.109806 91.058487 13.118377 -0.342183 -0.402118 -4.479804 -0.596826 -1.216135 20.511068 2.648839 -1.986704 7.092277 -1.632505 2.723858 -2.603651 0.491713 8.482169 -37.127937 5.944102 7.134025 6e-06 -0.0 0.0 -0.106808 0.256058 -0.07504 0.151235 0.198758 0.017988 0.189577 0.32048 -0.172655 -21.467575 -70.243736 27.624311 49.264153 5.205711 -45.025375 33.598915 -0.099753 1.033692 22.055992 52.367546 20.828691 17.636621 -26.322733 52.411198 -19.466656 -14.3956 29.410393 -1e-06 -8.77482 -1e-06 15.932301 -18.050146 6.792809 -0.609776 -1.795654 -3.889328 -4.807088 -11.046811 -2.93785 4e-06 -20.976015 0.0 -5.019969 -25.033556 -4.03188 6e-06 -0.0 -0.0 -10.634532 -5.68697 -3.565588 10.573272 -17.922947 -3.1139 2e-06 -13.821206 1e-06 -0.501777 -31.181501 -4.027016 -10.448576 -59.629307 6.789823 -13.982712 -7.150198 -2.875042 13.772729 -8.401491 -3.218243 0.347733 -34.211555 0.771655 -0.96303 -17.73337 2.62102 -0.0 1e-06 0.0 -17.346413 -20.095217 -4.201782 21.757555 -1.638375 3.866426 1e-06 -6.338825 1e-06 -1.697589 -22.591745 -6.194006 -0.0 -5e-06 -3e-06 163.736298 -77.724899 20.320053 101.162544 -3.38694 -23.73016 9.116481 0.354024 0.162652 51.612396 72.461693 56.965065 22.182116 -20.375896 49.933323 -16.701815 -16.74353 28.476536 -2e-06 -12.690602 0.0 15.831242 -17.911512 3.232074 -0.105919 -1.513856 -4.275882 -5.039041 -5.612873 -2.953557 4e-06 -11.020528 -2e-06 -6.1113 -15.895339 -3.84047 0.0 -1e-06 1e-06 -10.283371 -5.680289 -4.341838 11.028295 -11.302411 -2.372633 -1.384269 -14.238585 -6.320123 -0.62544 -26.924202 -3.827602 -4.05564 -49.073875 -4.234581 -13.708526 -7.363478 -3.720939 18.141148 -14.052742 -3.242675 5e-06 -18.787279 -3e-06 -0.429711 -8.456045 2.555503 1e-06 0.0 0.0 -15.923536 -20.09449 -5.473584 30.419218 -7.190827 1.735927 3e-06 -8.16293 -2e-06 -1.861902 -22.861475 -6.167943 -1e-06 -2e-06 -1e-06 124.015678 -8.184813 2.722131 100.79702 -0.267507 0.398437 -57.756653 34.447216 -0.060438 -12.980605 1.057285 1.507931 -0.999999 -0.0 1e-06 -53.591183 -7.527126 1.385822 113.373596 -2.613638 0.165072 -64.305779 8.291199 -1.502679 -9.288903 0.534336 1.868173 -1.000003 0.0 0.0 
0.0 0.0 0.0 0.0 -0.0 0.0 0.581098 49.633312 -1.12309 82.469734 -59.909195 91.227951 13.179312 -0.076496 -0.332508 -4.45007 -0.394226 -1.334464 21.000004 3.236167 -1.958664 6.930305 -2.066837 2.578881 -2.677731 0.422703 8.829628 -36.546707 5.830672 7.734216 5e-06 -0.0 0.0 -0.116682 0.187231 -0.040566 0.082773 0.123695 0.026698 0.13702 0.254191 -0.117727 -18.022072 -68.814461 23.98934 47.903008 9.893221 -43.125946 24.720324 -0.389736 0.456704 15.959569 50.117767 11.706373 17.636639 -26.322741 52.411201 -19.466665 -14.395598 29.410395 -0.0 -8.774823 -3e-06 15.958463 -17.972307 6.576941 -0.609777 -1.795655 -3.889328 -4.80709 -11.046813 -2.93785 3e-06 -20.976021 1e-06 -5.019973 -25.033564 -4.03188 6e-06 1e-06 0.0 -10.634537 -5.686973 -3.565587 10.573277 -17.922958 -3.113901 2e-06 -13.821213 2e-06 -0.501779 -31.181511 -4.027015 -10.265987 -59.375942 6.629725 -13.982718 -7.1502 -2.875041 13.772733 -8.401497 -3.218241 0.347732 -34.211563 0.771657 -0.96303 -17.733381 2.621021 -0.0 1e-06 0.0 -17.346424 -20.095222 -4.20178 21.757566 -1.638377 3.86643 1e-06 -6.338826 1e-06 -1.69759 -22.591755 -6.194007 1e-06 -5e-06 -2e-06 165.144775 -78.436325 19.215715 101.23246 -3.624207 -22.630955 8.604069 0.32681 0.154054 51.87883 72.186226 57.205051 22.182121 -20.375891 49.933311 -16.701818 -16.743526 28.47653 -2e-06 -12.690604 -2e-06 15.977133 -17.958775 3.200678 -0.10592 -1.513856 -4.275882 -5.039041 -5.612873 -2.953556 3e-06 -11.020528 -2e-06 -6.111299 -15.895334 -3.840471 -0.0 -1e-06 -1e-06 -10.283372 -5.68029 -4.341838 11.028296 -11.302407 -2.372633 -1.384269 -14.238583 -6.320122 -0.625439 -26.924198 -3.827603 -4.023658 -49.089394 -4.311816 -13.708526 -7.363477 -3.720939 18.141151 -14.05274 -3.242674 6e-06 -18.787275 -3e-06 -0.429711 -8.456043 2.555504 0.0 -0.0 -0.0 -15.923538 -20.094486 -5.473583 30.419214 -7.190827 1.735928 3e-06 -8.162927 -2e-06 -1.861902 -22.861473 -6.167943 -1e-06 -2e-06 -1e-06 126.622749 -8.11111 2.221346 98.229279 -0.289668 0.319312 -56.956676 34.088619 -0.213773 -12.451715 0.977912 1.531309 -0.999999 1e-06 1e-06 -58.471783 -6.750455 1.896108 120.707588 -1.961236 0.168098 -70.041679 7.731013 -1.962319 -10.166998 0.542139 1.872534 -1.000002 -0.0 0.0 
0.0 0.0 0.0 0.0 -0.0 0.0 1.339646 49.558121 0.882512 81.43351 -59.662167 91.675354 13.161213 0.229333 -0.256925 -4.36161 -0.27263 -1.536597 21.544651 3.973764 -1.970126 6.85999 -2.449576 2.500213 -2.71746 0.321687 9.008743 -36.201759 5.673815 8.232871 5e-06 1e-06 0.0 -0.116468 0.163796 -0.037701 0.000307 0.097604 -0.000127 0.070274 0.228697 -0.08652 -15.99805 -67.602257 21.952719 47.388981 11.73408 -41.263607 18.968298 -1.140868 0.091047 11.396163 48.309387 6.277964 17.636627 -26.322725 52.411186 -19.466654 -14.395597 29.410381 -0.0 -8.774822 -2e-06 15.884171 -17.881472 6.469233 -0.609776 -1.795654 -3.889328 -4.807088 -11.046809 -2.93785 4e-06 -20.976011 -1e-06 -5.019971 -25.033552 -4.031881 7e-06 0.0 -0.0 -10.634533 -5.686969 -3.565587 10.573271 -17.922947 -3.1139 2e-06 -13.821205 1e-06 -0.501777 -31.181498 -4.027016 -10.096319 -59.246086 6.533935 -13.982712 -7.150198 -2.875041 13.772727 -8.40149 -3.218241 0.347733 -34.211536 0.771654 -0.963029 -17.733366 2.621019 -0.0 0.0 0.0 -17.346418 -20.095217 -4.201779 21.757555 -1.638372 3.866427 1e-06 -6.338821 1e-06 -1.697589 -22.59174 -6.194006 -0.0 -5e-06 -2e-06 164.447235 -79.426796 20.363132 101.322151 -3.989477 -21.04463 8.462413 0.17877 0.156026 53.98558 72.280281 59.713593 22.182104 -20.375887 49.9333 -16.701809 -16.743525 28.476519 -3e-06 -12.690598 -0.0 16.224033 -18.047958 3.122375 -0.105919 -1.513856 -4.275879 -5.039038 -5.61287 -2.953555 4e-06 -11.020519 -2e-06 -6.111295 -15.895326 -3.840469 -0.0 -0.0 -0.0 -10.283364 -5.680286 -4.341836 11.02829 -11.302402 -2.372632 -1.384268 -14.238575 -6.320119 -0.625438 -26.924183 -3.827599 -4.033957 -49.449234 -4.253489 -13.708518 -7.363473 -3.720938 18.141142 -14.052732 -3.242673 6e-06 -18.787268 -3e-06 -0.429711 -8.456039 2.555502 0.0 1e-06 0.0 -15.923526 -20.094479 -5.473582 30.419193 -7.190823 1.735924 2e-06 -8.162922 -1e-06 -1.8619 -22.861465 -6.167942 -1e-06 -4e-06 -1e-06 129.485519 -8.006634 1.883917 95.501007 -0.203349 0.277803 -56.96022 33.615791 -0.525076 -12.454271 0.906285 1.553683 -0.999999 1e-06 -0.0 -64.052429 -5.741629 2.611446 128.102951 -1.237775 0.286894 -76.964821 7.024401 -2.324332 -11.671931 0.58662 1.839939 -1.000003 -0.0 0.0 
